<?xml version="1.0" encoding="utf-8"?>
<!-- Generator: Adobe Illustrator 20.1.0, SVG Export Plug-In . SVG Version: 6.00 Build 0)  -->
<svg version="1.1" id="Layer_1" xmlns="http://www.w3.org/2000/svg" xmlns:xlink="http://www.w3.org/1999/xlink" x="0px" y="0px"
	 viewBox="0 0 460 460" style="enable-background:new 0 0 460 460;" xml:space="preserve">
<style type="text/css">
	.st0{fill:#C7CFDD;}
	.st1{opacity:0.39;fill:#74B39B;}
	.st2{opacity:0.39;fill:#7B91C9;}
	.st3{fill:#FFFFFF;}
</style>
<title>about-icon-1</title>
<circle class="st0" cx="304" cy="155.6" r="152.7"/>
<circle class="st1" cx="281.7" cy="335.8" r="121.4"/>
<circle class="st2" cx="134" cy="241.4" r="130.4"/>
<g>
	<path class="st3" d="M302.4,197.5c-24.6,0-44.6-20-44.6-44.6s20-44.6,44.6-44.6c24.6,0,44.6,20,44.6,44.6S326.9,197.5,302.4,197.5z
		 M302.4,113.8c-21.6,0-39.2,17.6-39.2,39.1s17.6,39.1,39.2,39.1c21.6,0,39.1-17.6,39.1-39.1S323.9,113.8,302.4,113.8z"/>
	<path class="st3" d="M302.4,179.4c-14.6,0-26.4-11.9-26.4-26.4c0-14.6,11.9-26.4,26.4-26.4s26.4,11.9,26.4,26.4
		C328.8,167.5,316.9,179.4,302.4,179.4z M302.4,129.2c-13.1,0-23.7,10.6-23.7,23.7s10.6,23.7,23.7,23.7s23.7-10.6,23.7-23.7
		S315.4,129.2,302.4,129.2z"/>
	<path class="st3" d="M302.4,165.2c-6.8,0-12.3-5.5-12.3-12.3s5.5-12.3,12.3-12.3s12.3,5.5,12.3,12.3S309.1,165.2,302.4,165.2z
		 M302.4,143.3c-5.3,0-9.6,4.3-9.6,9.6s4.3,9.6,9.6,9.6s9.6-4.3,9.6-9.6S307.6,143.3,302.4,143.3z"/>
	<circle class="st3" cx="367.5" cy="152.9" r="7.4"/>
	<circle class="st3" cx="407.4" cy="152.9" r="16.5"/>
</g>
</svg>
