<svg xmlns="http://www.w3.org/2000/svg" width="700" height="240" viewBox="0 0 700 240">
  <defs>
    <style>
      .cls-1 {
        fill: #4285f4;
      }

      .cls-1, .cls-2, .cls-3, .cls-4, .cls-5 {
        fill-rule: evenodd;
      }

      .cls-2 {
        fill: #ea4335;
      }

      .cls-3 {
        fill: #fbbc03;
      }

      .cls-4 {
        fill: #34a853;
      }

      .cls-5 {
        fill: white;
      }
    </style>
  </defs>
  <path id="a" class="cls-1" d="M38.032,30.668Q53.155,20.3,70.269,20.3q17.372,0,17.372,16.68L61.367,40.52Q28.611,45.015,28.612,72.5q0,13.31,8.167,21.045t21.736,7.736q18.84,0,28.607-16.249h0.346V98.944H114V41.212Q114,1.024,73.9,1.024A93.662,93.662,0,0,0,55.36,3.271Q44.513,5.519,38.032,9.148v21.52ZM87.64,53.311v6.828a21.449,21.449,0,0,1-5.531,15.038,18.246,18.246,0,0,1-14.087,6.05q-6.223,0-9.9-3.284A11.032,11.032,0,0,1,54.453,69.3q0-11.667,15.124-13.655Z"/>
  <path id="o" class="cls-2" d="M133.587,87.925q13.7,13.353,37.033,13.353,23.767,0,37.682-13.915t13.914-37.422q0-22.383-13.568-35.651T172,1.024q-23.853,0-37.984,13.482T119.888,51.583Q119.888,74.573,133.587,87.925Zm20.656-57.949q6.093-7.519,17.069-7.519,22.557,0,22.557,28,0,29.385-22.384,29.385-23.336,0-23.335-28.607Q148.15,37.5,154.243,29.976Z"/>
  <path id="m" class="cls-3" d="M377.976,39.57q0-38.545-31.2-38.546-21.089,0-32.15,18.063-7.434-18.062-27.57-18.063A35.87,35.87,0,0,0,269.6,5.561a35.1,35.1,0,0,0-13.31,12.748h-0.345V3.357H228.027V98.944h27.916V45.619q0-10.456,4.71-16.81a14.877,14.877,0,0,1,12.575-6.352q15.816,0,15.816,21.261V98.944h27.829V45.36q0-9.593,4.926-16.248t12.359-6.655q15.988,0,15.989,21.952V98.944h27.829V39.57Z"/>
  <path id="o-2" data-name="o" class="cls-1" d="M398.587,87.925q13.7,13.353,37.033,13.353,23.767,0,37.682-13.915t13.914-37.422q0-22.383-13.568-35.651T437,1.024q-23.853,0-37.984,13.482T384.888,51.583Q384.888,74.573,398.587,87.925Zm20.656-57.949q6.093-7.519,17.069-7.519,22.557,0,22.557,28,0,29.385-22.384,29.385-23.336,0-23.335-28.607Q413.15,37.5,419.243,29.976Z"/>
  <path id="x" class="cls-4" d="M553.874,3.357l-14.606,27.4a56.176,56.176,0,0,0-3.976,8.9h-0.345a79.406,79.406,0,0,0-3.889-8.815L516.884,3.357H484.561L514.982,51.41,482.659,98.944h32.064l14.52-26.619a59.739,59.739,0,0,0,3.889-8.3h0.346a68.376,68.376,0,0,0,4.062,8.556l14.26,26.36h32.237l-31.373-49L584.3,3.357H553.874Z"/>
  <path id="o-3" data-name="o" class="cls-2" d="M592.587,87.925q13.7,13.353,37.033,13.353,23.768,0,37.682-13.915t13.914-37.422q0-22.383-13.568-35.651T631,1.024q-23.853,0-37.984,13.482T578.888,51.583Q578.888,74.573,592.587,87.925Zm20.656-57.949q6.093-7.519,17.069-7.519,22.557,0,22.557,28,0,29.385-22.384,29.385-23.336,0-23.335-28.607Q607.15,37.5,613.243,29.976Z"/>
  <path id="爱_梦_想" data-name="爱   梦   想" class="cls-5" d="M150.732,163.6l14.6-.26-8.257,3.476q1.521,2.173,3.259,5.215H149.168v13.732h11.994v-4.606h54.669v4.606h11.994V172.031H216.874q2.91-3.129,5.388-6l-6.257-3.694,12.081-.3-2.7-9.126q-47.107,1.738-77.527,1.564,1.911,5.39,2.868,9.126h0Zm60.275-1.173q-3.477,5.259-7,9.6h-6.518q-2.521-4.824-5.172-9.213Zm-21.6.435-8.083,2.824q1.956,3.26,3.52,6.345h-11.6q-3.042-4.909-5.606-8.735Zm-42.588,34.2h19.686a71.017,71.017,0,0,1-21.6,25.292,72.646,72.646,0,0,1,6.084,10.169q2.825-2.173,5.432-4.519a103.1,103.1,0,0,1,5.693,9.126,150.744,150.744,0,0,0,30.289-8.779,112.113,112.113,0,0,0,33.158,7.736q2.52-5.476,5.736-11.212a120.724,120.724,0,0,1-25.335-3.173,92.589,92.589,0,0,0,17.079-12.732V201.5H176.98q1.086-2.172,2.043-4.433h51.409v-9.126H182.369q0.738-2.433,1.39-4.954H172.026q-0.74,2.522-1.608,4.954h-23.6v9.126Zm32.419,11.994h27.378a72.765,72.765,0,0,1-14.037,8.083,58.188,58.188,0,0,1-13.341-8.083h0Zm0.739,12.777a168.1,168.1,0,0,1-22.337,5.084,89.858,89.858,0,0,0,11.95-13.211,70.931,70.931,0,0,0,10.387,8.127h0Zm163.563-1.043a165.5,165.5,0,0,1-29.377,6.171q2.868,5.214,5.3,10.777,26.075-3.564,41.805-11.994A70.419,70.419,0,0,0,386.3,203.233v-8.952H348.931q1.215-1.565,2.346-3.3l-10.864-3.129q-0.348.522-.608,0.956v-9.386q2.955,2.173,5.91,4.519l5.562-8-11.472-5.736v-0.695h12.428v-9.04H339.805V151h-10.43v9.473H313.991v9.04h12.255a66.624,66.624,0,0,1-15.036,12.95q3.129,3.738,6.866,9.039a71.344,71.344,0,0,0,11.3-12.863v13.384H337.2q-8.256,9.909-23.988,18.6,3.736,4,8.083,9.387a112.6,112.6,0,0,0,19.382-15.993h30.941a56.258,56.258,0,0,1-16.6,12.168q-6.693-5.04-12.516-9.3l-7.735,6.953q4.433,3.3,8.778,6.953h0Zm35.026-44.413a50.822,50.822,0,0,0,14.167,14.949,91.908,91.908,0,0,1,5.389-9.3,49.725,49.725,0,0,1-15.644-12.515h12.341v-9.04H378.568V151H368.139v9.473h-12.6v9.04h8.952a56.363,56.363,0,0,1-16.166,14.167,73.681,73.681,0,0,1,6.78,7.909,72.571,72.571,0,0,0,13.037-14.254v14.688h10.429V176.377Zm104.054,25.639q5.257-7.082,9.386-13.906v16.6h11.125v-16.34l6.258,5.562,5.128-9.56q-5.214-3.432-11.386-7.04v-4.259h10.6V162.3h-10.6v-9.822H492.008V162.3H480.362v10.777h10.821a83.776,83.776,0,0,1-12.472,16.253q1.911,5.216,3.911,12.689h0ZM516,202.538h4.215l-6.823,5.91q5.823,6,11.907,13.037l8.6-7.3q-5.606-5.562-12.125-11.646h37.156V155H516v47.542Zm31.81-38.416v4.78H527.122v-4.78h20.685Zm-20.685,12.255h20.685v4.78H527.122v-4.78Zm0,12.255h20.685v4.78H527.122v-4.78Zm8.952,32.592a4.4,4.4,0,0,1-2.369,2.977,10.981,10.981,0,0,1-4.932.935H515.214q-4.692,0-4.693-4.868v-13.3H499.048V223.4q0,11.994,13.038,11.994h21.9a15.022,15.022,0,0,0,8.843-2.542q3.628-2.542,6.715-13.45,3.084,4.433,5.649,8.518l10.082-6.866q-6.78-9.213-13.037-16.775l-9.387,6.171q3.216,4.129,6.041,8.04-4.651-1.782-11.256-4.737Q536.6,219.183,536.074,221.224Zm-57.885,5.3,10.864,4q3.738-8.169,8.083-20.859L486.359,206.1a141.557,141.557,0,0,1-8.17,20.425h0Z"/>
</svg>
