<svg xmlns="http://www.w3.org/2000/svg" width="519" height="222" viewBox="0 0 519 222">
  <defs>
    <style>
      .cls-1 {
        fill: #fff;
        fill-rule: evenodd;
      }
    </style>
  </defs>
  <path id="aomoxo" class="cls-1" d="M38.474,43.817a35.02,35.02,0,0,1,22.69-8.376q14,0,14,16.94l-20.5,2.875q-22.941,3.188-22.94,22.565,0,9.252,5.938,14.689t16,5.438q14,0,21.19-12.314h0.313V96.323H87.293V51.818q0-26.253-25-26.253A44.036,44.036,0,0,0,38.474,32V43.817ZM75.166,61.631v6.626a20.037,20.037,0,0,1-5.188,14.127,17.158,17.158,0,0,1-13.189,5.626,13.366,13.366,0,0,1-9.251-3.125,10.311,10.311,0,0,1-3.5-8.064q0-5.626,3.219-8.751t11.72-4.251ZM104.389,88.2q9.251,9.751,24.753,9.751,15.877,0,25.316-10.064T163.9,61.444q0-16.814-8.845-26.347t-24.409-9.532q-16.379,0-25.941,9.908T95.138,62.506Q95.138,78.446,104.389,88.2Zm9.22-45.443q5.968-7.063,16.284-7.063,10.5,0,16,6.751t5.5,19.377q0,12.564-5.5,19.284t-16,6.719q-10.19,0-16.221-6.876T107.64,62.131Q107.64,49.818,113.609,42.754ZM272.034,53.693q0-28.128-22.816-28.128-15.315,0-23,14.127a19.643,19.643,0,0,0-7.376-10.314,20.48,20.48,0,0,0-12.252-3.813q-14.19,0-21.565,12.564h-0.25V27.19H172.522V96.323h12.251V57.006q0-9.313,4.594-15.314a14.042,14.042,0,0,1,11.6-6q15.189,0,15.189,19.69V96.323H228.4V56.943A23.932,23.932,0,0,1,233.216,42q4.814-6.313,11.564-6.313,8,0,11.5,4.844t3.5,16.1V96.323h12.252V53.693Zm17.159,34.5q9.251,9.751,24.753,9.751,15.876,0,25.315-10.064T348.7,61.444q0-16.814-8.845-26.347t-24.409-9.532q-16.377,0-25.941,9.908t-9.563,27.035Q279.942,78.446,289.193,88.2Zm9.22-45.443q5.968-7.063,16.283-7.063,10.5,0,16,6.751t5.5,19.377q0,12.564-5.5,19.284t-16,6.719q-10.19,0-16.221-6.876t-6.032-18.815Q292.443,49.818,298.413,42.754ZM400.862,27.19L384.047,55.818H383.8q-1.687-3.375-2.875-5.5L367.983,27.19H353.731l22.44,35.192-23.5,33.942h14.065l13.439-22a58.083,58.083,0,0,0,3.125-5.376h0.25q1.937,3.626,3,5.376l13.19,22h14.251L391.173,62.006,414.3,27.19H400.862ZM427.522,88.2q9.251,9.751,24.753,9.751,15.876,0,25.316-10.064t9.438-26.441q0-16.814-8.845-26.347t-24.409-9.532q-16.377,0-25.94,9.908t-9.564,27.035Q418.271,78.446,427.522,88.2Zm9.22-45.443q5.969-7.063,16.283-7.063,10.5,0,16,6.751t5.5,19.377q0,12.564-5.5,19.284t-16,6.719q-10.189,0-16.221-6.876t-6.032-18.815Q430.772,49.818,436.742,42.754Z"/>
  <path id="爱_梦_想" data-name="爱   梦   想" class="cls-1" d="M112.338,168.431h16.4a53.711,53.711,0,0,1-18.166,20.64,45.611,45.611,0,0,1,2.626,4.457,63.218,63.218,0,0,0,15.2-15.51,38.045,38.045,0,0,0,11.48,10.137,105.584,105.584,0,0,1-22.471,5.129,37.42,37.42,0,0,1,2.809,4.152,99.657,99.657,0,0,0,24.883-6.625A81.287,81.287,0,0,0,169,196.826q1.221-2.261,2.87-5.008a81.527,81.527,0,0,1-21.128-3.755,46.066,46.066,0,0,0,13.129-10.411v-4.275H131.359q1.374-2.381,2.564-4.946h37.218v-4.274H135.786q0.977-2.474,1.832-5.068h-5.191q-0.793,2.625-1.77,5.068H112.338v4.274ZM141.77,153.1l4.213-2.321a82.047,82.047,0,0,0-5.007-6.717q15.236-.488,27.723-1.1l-0.733-4.335q-24.059,1.527-53.369,1.709,0.549,2.444.855,4.4,4.244-.092,8.305-0.183l-3.3,2.2a82.584,82.584,0,0,1,5.16,6.473H113.864v9.281h4.763V157.5h45.736v5.007h4.763v-9.281H158.288q2.776-3.42,5.4-7.267l-4.519-2.442a60.258,60.258,0,0,1-5.374,7.816l2.718,1.893H126.291l3.511-2.382a67.455,67.455,0,0,0-5.465-6.289q8.151-.213,15.632-0.428l-3.206,1.832a72.3,72.3,0,0,1,5.007,7.145h0Zm3.572,32.79a39.327,39.327,0,0,1-11.907-8.365h23.906a39.771,39.771,0,0,1-12,8.365h0ZM255.469,187.3a82.993,82.993,0,0,1-22.96,5.984,37.186,37.186,0,0,1,2.321,4.335q30.652-4.029,45.064-24.425v-4.152H251.866q1.527-1.893,2.931-3.908l-4.4-1.343q-6.291,9.342-18.93,17.341a34.323,34.323,0,0,1,3.176,3.664,76.73,76.73,0,0,0,13.617-11.6h26.318a48.57,48.57,0,0,1-14.716,12.03q-5.557-4.458-10.748-8.244l-2.992,2.748q4.4,3.42,9.343,7.572h0Zm19.479-37.92H287.71v-4.153h-13.5v-7.938H270v7.938h-9.4v4.153h8.793a52.775,52.775,0,0,1-14.716,12.151,30.972,30.972,0,0,1,3.3,3.3A60.913,60.913,0,0,0,270,153.043v12.7h4.213V152.616a45.063,45.063,0,0,0,12.762,11.968,46.278,46.278,0,0,1,3.359-3.786,42.12,42.12,0,0,1-15.388-11.418h0Zm-43.11,15.754a49.7,49.7,0,0,0,10.991-11.052v11.6h4.213V154.2a79.3,79.3,0,0,1,7.939,5.556l2.625-3.053q-3.6-2.5-9.342-5.984l-1.222,1.649V149.38H257.3v-4.153H247.042v-8h-4.213v8H230.922v4.153h11.6a45.653,45.653,0,0,1-13.5,12.212,30.489,30.489,0,0,1,2.809,3.542h0Zm146.917,9.77v-1.466h19.784v1.893h4.519V140.037H374.236V174.9h4.519Zm-29.371-2.076a67.739,67.739,0,0,0,9.1-14.167v16.426h4.4v-16.67a44.184,44.184,0,0,1,6.534,6.412l3.237-3.237a85.371,85.371,0,0,0-7.816-6.717l-1.955,1.893v-5.8h8.61v-4.03h-8.61V137.6h-4.4v9.342H348.223v4.03h9.709A55.757,55.757,0,0,1,347.307,168a27.348,27.348,0,0,1,2.077,4.824h0Zm13.678,15.51q0,7.632,7.51,7.633H384.8q6.656,0,8.244-5.557,0.793-2.625,1.648-6.961-2.748-.977-4.824-1.832-0.61,4.335-1.16,6.595-0.732,3.48-5.007,3.48H371.672q-3.971,0-3.97-3.786V177.224h-4.64v11.114Zm15.693-24.853h19.784v5.8H378.755v-5.8Zm19.784-19.3v5.74H378.755v-5.74h19.784Zm-19.784,9.648h19.784v5.74H378.755v-5.74ZM347.43,191.208q2.808,1.343,4.4,2.2a85.654,85.654,0,0,0,6.045-13.861l-4.579-1.588a54.454,54.454,0,0,1-5.862,13.251h0Zm56.3,0.122L408,188.46q-5.435-7.328-8.305-10.808l-3.663,2.564q3.846,5.13,7.694,11.114h0ZM379.854,186.2l3.419-3.542q-4.335-3.907-8.548-7.2l-2.931,3.053a99,99,0,0,1,8.06,7.694h0Z"/>
</svg>
